# xmcd
#
# Track frame offsets:
#	150
#	10230
#	26793
#	45485
#	62173
#	78828
#	92850
#	109389
#	125695
#	144936
#	159055
#	174361
#	195590
#	210540
#
# Disc length: 3056 seconds
#
# Revision: 0
# Processed by: cddbd v1.5.2PL0 Copyright (c) Steve Scherf et al.
# Submitted via: audiograbber 1.83.01
#
DISCID=b20bee0e
DTITLE=DCWDA - Special 81
DYEAR=2010
DGENRE=Line Dance
TTITLE0=Kentucky Headhunters - Dixie Fried
TTITLE1=Trisha Yearwood - Not A Bad Thing
TTITLE2=Joe Merrick - Yolanda
TTITLE3=Ilse DeLange - Carousel
TTITLE4=John Dean - Riders In The Sky
TTITLE5=Danny Gokey - My Best Days Are Ahead Of Me
TTITLE6=Keith Urban - Put You In A Song
TTITLE7=Heather Myles - Vaya Con Dios
TTITLE8=Dixie Chicks - Everybody Knows
TTITLE9=Rosanna Cash And Bruce Springsteen - Sea Of Heartbreak
TTITLE10=Sammy Kershaw - Everybody Wants My Girl
TTITLE11=Sparx - No Hay Otro Amor
TTITLE12=Teea Goans - Two Arms, Two Lips, Too Lonely, Too Long
TTITLE13=Miss Leslie - Some Things They Can't Take Away
EXTD=
EXTT0=
EXTT1=
EXTT2=
EXTT3=
EXTT4=
EXTT5=
EXTT6=
EXTT7=
EXTT8=
EXTT9=
EXTT10=
EXTT11=
EXTT12=
EXTT13=
PLAYORDER=
